<svg width="127" height="127" viewBox="0 0 127 127" fill="none" xmlns="http://www.w3.org/2000/svg">
<g clip-path="url(#clip0_650_10)">
<path d="M100.161 8.53295C103.138 7.29272 106.536 7.98725 108.818 10.2445L124.693 26.1195C126.181 27.6078 127.025 29.6169 127.025 31.7253C127.025 33.8337 126.181 35.8429 124.693 37.3312L108.818 53.2062C106.536 55.4882 103.138 56.1579 100.161 54.9177C97.1848 53.6775 95.25 50.8001 95.25 47.5755V39.638H87.3125C84.8072 39.638 82.4508 40.8038 80.9625 42.813L70.4453 56.8773L60.5234 43.6564L68.2625 33.3376C72.7522 27.3349 79.8215 23.8126 87.3125 23.8126H95.25V15.8751C95.25 12.6753 97.1848 9.77318 100.161 8.53295ZM40.6797 70.123L50.6016 83.3439L42.8625 93.6626C38.3729 99.6654 31.3035 103.188 23.8125 103.188H7.9375C3.54707 103.188 0 99.6406 0 95.2501C0 90.8597 3.54707 87.3126 7.9375 87.3126H23.8125C26.3178 87.3126 28.6742 86.1468 30.1625 84.1376L40.6797 70.123ZM108.793 116.756C106.511 119.038 103.113 119.708 100.137 118.467C97.16 117.227 95.2252 114.35 95.2252 111.125V103.188H87.2877C79.7967 103.188 72.7273 99.6654 68.2377 93.6626L30.1625 42.8626C28.6742 40.8535 26.3178 39.6876 23.8125 39.6876H7.9375C3.54707 39.6876 0 36.1406 0 31.7501C0 27.3597 3.54707 23.8126 7.9375 23.8126H23.8125C31.3035 23.8126 38.3729 27.3349 42.8625 33.3376L80.9625 84.1376C82.4508 86.1468 84.8072 87.3126 87.3125 87.3126H95.25V79.3751C95.25 76.1753 97.1848 73.2732 100.161 72.0329C103.138 70.7927 106.536 71.4872 108.818 73.7445L124.693 89.6195C126.181 91.1077 127.025 93.1169 127.025 95.2253C127.025 97.3337 126.181 99.3429 124.693 100.831L108.818 116.706L108.793 116.756Z" fill="white"/>
</g>
<defs>
<clipPath id="clip0_650_10">
<rect width="127" height="127" fill="white"/>
</clipPath>
</defs>
</svg>
