<svg width="159" height="127" viewBox="0 0 159 127" fill="none" xmlns="http://www.w3.org/2000/svg">
<g clip-path="url(#clip0_644_4)">
<path d="M49.6094 0C42.0191 0 35.7188 13.5682 35.7188 21.3568V47.7738L1.93477 68.0393C0.719336 68.7586 0 70.0484 0 71.4375V87.3125C0 88.5775 0.595313 89.7434 1.5875 90.4875C2.57969 91.2316 3.89434 91.4549 5.08496 91.1076L35.6939 81.9299V102.071L23.2916 111.993C22.349 112.737 21.8033 113.878 21.8033 115.094V123.031C21.8033 124.296 22.4234 125.512 23.4404 126.256C24.4574 127 25.7969 127.198 27.0123 126.802L49.6094 119.286L72.0328 126.752C71.6359 125.586 71.4375 124.321 71.4375 123.031V114.945C66.923 112.34 63.8225 107.578 63.5248 102.096L63.5 102.071V101.203V80.7393V45.6406V45.3678V21.332C63.5 13.5682 57.4229 0 49.6094 0ZM71.4375 43.6562V99.2188C71.4375 104.403 74.7613 108.818 79.375 110.455V121.047C79.375 124.346 82.0291 127 85.3281 127H89.2969C92.5959 127 95.25 124.346 95.25 121.047V111.125H134.938V121.047C134.938 124.346 137.592 127 140.891 127H144.859C148.158 127 150.812 124.346 150.812 121.047V110.455C155.426 108.818 158.75 104.403 158.75 99.2188V43.6562C158.75 37.083 153.417 31.75 146.844 31.75H83.3438C76.7705 31.75 71.4375 37.083 71.4375 43.6562ZM91.2316 63.1775C92.0502 61.0195 94.0098 59.5312 96.3166 59.5312H133.871C136.153 59.5312 138.137 61.0195 138.956 63.1775L142.875 75.4062H87.3125L91.2316 63.1775ZM140.891 87.3125C141.672 87.3125 142.447 87.4665 143.169 87.7657C143.891 88.0648 144.547 88.5033 145.1 89.0561C145.653 89.6089 146.091 90.2652 146.391 90.9875C146.69 91.7097 146.844 92.4838 146.844 93.2656C146.844 94.0474 146.69 94.8215 146.391 95.5438C146.091 96.2661 145.653 96.9223 145.1 97.4751C144.547 98.0279 143.891 98.4664 143.169 98.7656C142.447 99.0648 141.672 99.2188 140.891 99.2188C140.109 99.2188 139.335 99.0648 138.612 98.7656C137.89 98.4664 137.234 98.0279 136.681 97.4751C136.128 96.9223 135.69 96.2661 135.391 95.5438C135.091 94.8215 134.938 94.0474 134.938 93.2656C134.938 92.4838 135.091 91.7097 135.391 90.9875C135.69 90.2652 136.128 89.6089 136.681 89.0561C137.234 88.5033 137.89 88.0648 138.612 87.7657C139.335 87.4665 140.109 87.3125 140.891 87.3125ZM83.3438 93.2656C83.3438 91.6868 83.971 90.1726 85.0874 89.0561C86.2038 87.9397 87.718 87.3125 89.2969 87.3125C90.8757 87.3125 92.3899 87.9397 93.5064 89.0561C94.6228 90.1726 95.25 91.6868 95.25 93.2656C95.25 94.8445 94.6228 96.3587 93.5064 97.4751C92.3899 98.5915 90.8757 99.2188 89.2969 99.2188C87.718 99.2188 86.2038 98.5915 85.0874 97.4751C83.971 96.3587 83.3438 94.8445 83.3438 93.2656Z" fill="white"/>
</g>
<defs>
<clipPath id="clip0_644_4">
<rect width="158.75" height="127" fill="white"/>
</clipPath>
</defs>
</svg>
