<svg width="230" height="124" viewBox="0 0 230 124" fill="none" xmlns="http://www.w3.org/2000/svg">
<path d="M228.847 1H131.713V75.9873H228.847V1Z" stroke="#0071BC" stroke-width="1.94267" stroke-miterlimit="10" stroke-linecap="round" stroke-linejoin="round"/>
<path d="M46.8781 69.8952C47.0998 70.3109 47.2107 70.6712 47.2107 70.9761C47.2384 71.2532 47.1552 71.5165 46.9612 71.766C46.7672 71.9877 46.4624 72.1956 46.0466 72.3896C45.3815 72.6944 44.8549 72.7637 44.4668 72.5974C44.1065 72.4311 43.774 72.0293 43.4691 71.3918L33.0758 49.2748L22.7656 71.3502C22.4607 71.9877 22.1143 72.3896 21.7263 72.5559C21.366 72.7222 20.8394 72.6529 20.1465 72.348C19.7308 72.1817 19.4259 71.9738 19.2319 71.7244C19.0656 71.475 18.9963 71.1701 19.024 70.8098C19.0794 70.4495 19.218 70.0338 19.4397 69.5626L31.3713 44.6602C31.5376 44.3276 31.7731 44.0643 32.078 43.8703C32.4106 43.6486 32.757 43.5377 33.1173 43.5377C33.3668 43.5377 33.6024 43.5793 33.8241 43.6625C34.0458 43.7456 34.2398 43.8703 34.4061 44.0366C34.5724 44.2029 34.711 44.4246 34.8218 44.7018L46.8781 69.8952ZM25.26 64.2828L26.6735 61.0816H39.5612L40.9331 64.2828H25.26ZM31.3713 41.6669C30.9278 41.7501 30.5814 41.7085 30.3319 41.5422C30.0825 41.3759 29.8746 41.0295 29.7083 40.5029C29.5143 39.9209 29.4728 39.4774 29.5836 39.1725C29.7222 38.8677 30.0548 38.6321 30.5814 38.4658L37.2331 36.2208C37.6488 36.1377 37.9814 36.1931 38.2309 36.3871C38.4803 36.5534 38.6882 36.8999 38.8544 37.4265C39.0485 38.0085 39.0623 38.4519 38.896 38.7568C38.7574 39.034 38.4249 39.2695 37.8983 39.4636L31.3713 41.6669ZM73.3229 72.6806C71.466 72.6806 69.803 72.3619 68.3341 71.7244C66.8929 71.0592 65.6596 70.1446 64.6341 68.9806C63.6363 67.7888 62.8742 66.3892 62.3476 64.7817C61.821 63.1464 61.5577 61.3727 61.5577 59.4603V45.4085C61.5577 45.0205 61.5992 44.6879 61.6824 44.4108C61.7932 44.1336 61.9734 43.9258 62.2228 43.7872C62.5 43.6209 62.9157 43.5377 63.47 43.5377C64.0243 43.5377 64.4401 43.6209 64.7172 43.7872C64.9944 43.9258 65.1745 44.1336 65.2577 44.4108C65.3408 44.6879 65.3824 45.0344 65.3824 45.4501V59.4603C65.3824 61.3172 65.6873 62.9524 66.297 64.3659C66.9068 65.7794 67.8075 66.9019 68.9993 67.7334C70.191 68.5371 71.6738 68.939 73.4476 68.939C75.1105 68.939 76.5379 68.551 77.7297 67.7749C78.9214 66.9989 79.836 65.9041 80.4735 64.4907C81.1109 63.0772 81.4297 61.3865 81.4297 59.4187V45.1591C81.4297 44.8265 81.4713 44.5494 81.5544 44.3276C81.6653 44.0782 81.8593 43.8842 82.1364 43.7456C82.4136 43.607 82.8293 43.5377 83.3836 43.5377C83.9102 43.5377 84.2982 43.6209 84.5477 43.7872C84.8248 43.9258 85.005 44.1336 85.0881 44.4108C85.1713 44.6879 85.2128 45.0344 85.2128 45.4501V59.5434C85.2128 61.4835 84.9495 63.2573 84.423 64.8648C83.8964 66.4446 83.1203 67.8304 82.0949 69.0221C81.0971 70.1862 79.8499 71.0869 78.3533 71.7244C76.8843 72.3619 75.2075 72.6806 73.3229 72.6806ZM103.999 72.5559C103.473 72.5559 103.071 72.4727 102.794 72.3064C102.517 72.1678 102.336 71.96 102.253 71.6828C102.198 71.378 102.17 71.0315 102.17 70.6435V45.367C102.17 45.0067 102.212 44.7018 102.295 44.4523C102.406 44.1752 102.586 43.9535 102.835 43.7872C103.113 43.6209 103.514 43.5377 104.041 43.5377H113.229C114.587 43.5377 115.82 43.7456 116.929 44.1613C118.065 44.5493 119.049 45.1314 119.88 45.9074C120.712 46.6834 121.349 47.6673 121.793 48.8591C122.264 50.0232 122.499 51.3812 122.499 52.9333C122.499 53.9033 122.347 54.9149 122.042 55.9681C121.737 56.9936 121.266 57.9637 120.629 58.8783C120.019 59.7929 119.229 60.5551 118.259 61.1648C117.289 61.7745 116.111 62.121 114.725 62.2041H105.912V70.6851C105.912 71.0731 105.856 71.4057 105.745 71.6828C105.662 71.96 105.482 72.1678 105.205 72.3064C104.956 72.4727 104.554 72.5559 103.999 72.5559ZM121.834 72.0986C121.252 72.4866 120.753 72.6113 120.338 72.4727C119.95 72.3341 119.576 72.0016 119.215 71.475L112.563 60.8322L116.679 60.2086L122.416 69.3547C122.694 69.7982 122.86 70.1723 122.915 70.4772C122.998 70.7821 122.943 71.0592 122.749 71.3087C122.583 71.5581 122.278 71.8214 121.834 72.0986ZM105.912 58.5457H114.143C114.781 58.5457 115.377 58.4348 115.931 58.2131C116.485 57.9637 116.97 57.6033 117.386 57.1322C117.802 56.661 118.134 56.079 118.384 55.3861C118.633 54.6932 118.758 53.8618 118.758 52.8917C118.758 51.6999 118.536 50.6883 118.093 49.8569C117.677 49.0254 117.053 48.4018 116.222 47.9861C115.39 47.5426 114.365 47.3209 113.146 47.3209H105.912V58.5457ZM140.793 72.5559C140.238 72.5559 139.823 72.4727 139.545 72.3064C139.296 72.1678 139.13 71.96 139.047 71.6828C138.963 71.378 138.922 71.0315 138.922 70.6435V45.4085C138.922 44.6879 139.06 44.2029 139.338 43.9535C139.642 43.6763 140.169 43.5377 140.917 43.5377H157.63C158.018 43.5377 158.35 43.5793 158.628 43.6625C158.905 43.7456 159.113 43.9258 159.251 44.2029C159.39 44.4801 159.459 44.8958 159.459 45.4501C159.459 46.0044 159.376 46.4201 159.21 46.6973C159.071 46.9467 158.863 47.113 158.586 47.1962C158.309 47.2793 157.976 47.3209 157.588 47.3209H142.663V55.9266H153.057C153.445 55.9266 153.764 55.9681 154.013 56.0513C154.29 56.1344 154.498 56.3007 154.637 56.5502C154.775 56.7996 154.844 57.1876 154.844 57.7142C154.844 58.2131 154.775 58.5872 154.637 58.8367C154.498 59.0861 154.29 59.2524 154.013 59.3356C153.736 59.391 153.389 59.4187 152.974 59.4187H142.663V68.8143H157.63C158.018 68.8143 158.35 68.8558 158.628 68.939C158.905 69.0221 159.113 69.2023 159.251 69.4794C159.39 69.7289 159.459 70.1308 159.459 70.6851C159.459 71.2394 159.376 71.6551 159.21 71.9323C159.071 72.1817 158.863 72.348 158.586 72.4311C158.309 72.5143 157.976 72.5559 157.588 72.5559H140.793ZM200.868 69.8952C201.09 70.3109 201.201 70.6712 201.201 70.9761C201.228 71.2532 201.145 71.5165 200.951 71.766C200.757 71.9877 200.452 72.1956 200.037 72.3896C199.371 72.6944 198.845 72.7637 198.457 72.5974C198.096 72.4311 197.764 72.0293 197.459 71.3918L187.066 49.2748L176.755 71.3502C176.451 71.9877 176.104 72.3896 175.716 72.5559C175.356 72.7222 174.829 72.6529 174.136 72.348C173.721 72.1817 173.416 71.9738 173.222 71.7244C173.055 71.475 172.986 71.1701 173.014 70.8098C173.069 70.4495 173.208 70.0338 173.43 69.5626L185.361 44.6602C185.527 44.3276 185.763 44.0643 186.068 43.8703C186.4 43.6486 186.747 43.5377 187.107 43.5377C187.357 43.5377 187.592 43.5793 187.814 43.6625C188.036 43.7456 188.23 43.8703 188.396 44.0366C188.562 44.2029 188.701 44.4246 188.812 44.7018L200.868 69.8952ZM179.25 64.2828L180.663 61.0816H193.551L194.923 64.2828H179.25Z" fill="#213448"/>
<path d="M41.0493 95.5949C40.0997 95.5949 39.2475 95.4428 38.4927 95.1384C37.7379 94.8219 37.0866 94.3775 36.5388 93.8053C36.0031 93.221 35.5892 92.521 35.297 91.7053C35.0049 90.8896 34.8588 89.9827 34.8588 88.9844C34.8588 88.0348 35.0049 87.1765 35.297 86.4096C35.6014 85.6426 36.0336 84.9852 36.5936 84.4374C37.1536 83.8895 37.8232 83.4634 38.6023 83.1591C39.3815 82.8426 40.258 82.6782 41.2319 82.666C41.6093 82.666 41.9928 82.7026 42.3824 82.7756C42.7841 82.8487 43.1676 82.9521 43.5328 83.0861C43.898 83.22 44.2267 83.3782 44.5189 83.5608C44.7259 83.6948 44.9024 83.8348 45.0485 83.9808C45.1946 84.1148 45.2737 84.2548 45.2859 84.4009C45.2981 84.4739 45.2859 84.5652 45.2494 84.6748C45.2128 84.7843 45.1641 84.8878 45.1033 84.9852C45.0059 85.1313 44.8963 85.2409 44.7746 85.3139C44.665 85.3748 44.5554 85.4052 44.4459 85.4052C44.3972 85.4052 44.312 85.3748 44.1902 85.3139C44.0685 85.253 43.9163 85.1617 43.7337 85.04C43.5267 84.9183 43.2833 84.8026 43.0032 84.693C42.7354 84.5835 42.4432 84.4982 42.1267 84.4374C41.8102 84.3765 41.4815 84.3461 41.1406 84.3461C40.2032 84.3461 39.3875 84.5348 38.6936 84.9122C37.9997 85.2896 37.464 85.8313 37.0866 86.5374C36.7214 87.2435 36.5327 88.0774 36.5205 89.0392C36.5327 90.0375 36.7275 90.9018 37.1049 91.6323C37.4823 92.3627 38.0119 92.9288 38.6936 93.3306C39.3875 93.7323 40.1971 93.9332 41.1223 93.9332C41.4267 93.9332 41.7371 93.9088 42.0537 93.8601C42.3702 93.8114 42.6806 93.7445 42.985 93.6593C43.3015 93.5619 43.5937 93.4462 43.8615 93.3123V89.7879H40.6658C40.5076 89.7879 40.3676 89.7696 40.2458 89.7331C40.1362 89.6966 40.051 89.6235 39.9902 89.514C39.9415 89.4044 39.9171 89.2401 39.9171 89.0209C39.9171 88.8018 39.9475 88.6374 40.0084 88.5279C40.0693 88.4183 40.1545 88.3453 40.2641 88.3087C40.3736 88.2722 40.5076 88.254 40.6658 88.254H44.6285C44.872 88.254 45.0546 88.2966 45.1763 88.3818C45.2981 88.467 45.3833 88.5766 45.432 88.7105C45.4928 88.8322 45.5233 88.9844 45.5233 89.167V93.6593C45.5233 93.854 45.4137 94.061 45.1946 94.2801C44.9876 94.4871 44.6894 94.6819 44.2998 94.8645C44.0198 95.0106 43.7033 95.1384 43.3502 95.248C43.0093 95.3575 42.6441 95.4428 42.2545 95.5036C41.865 95.5645 41.4632 95.5949 41.0493 95.5949ZM53.5583 95.5584C53.3149 95.5584 53.1322 95.5219 53.0105 95.4488C52.8888 95.388 52.8035 95.2967 52.7548 95.1749C52.7183 95.0532 52.7001 94.9071 52.7001 94.7367V83.6521C52.7001 83.4695 52.7183 83.3174 52.7548 83.1956C52.7914 83.0739 52.8644 82.9826 52.974 82.9217C53.0957 82.8487 53.2783 82.8121 53.5218 82.8121C53.7653 82.8121 53.9418 82.8487 54.0514 82.9217C54.1731 82.9826 54.2523 83.0739 54.2888 83.1956C54.3253 83.3174 54.3436 83.4634 54.3436 83.6339V94.0245H60.461C60.6193 94.0245 60.7532 94.0427 60.8628 94.0793C60.9724 94.1158 61.0576 94.1888 61.1184 94.2984C61.1915 94.408 61.228 94.5723 61.228 94.7914C61.228 94.9984 61.1976 95.1628 61.1367 95.2845C61.0758 95.3941 60.9906 95.4671 60.8811 95.5036C60.7715 95.5402 60.6376 95.5584 60.4793 95.5584H53.5583ZM73.2186 95.6862C72.3542 95.6862 71.5386 95.5219 70.7716 95.1932C70.0168 94.8645 69.3472 94.408 68.7629 93.8236C68.1907 93.2271 67.7402 92.5453 67.4115 91.7784C67.0828 91.0114 66.9185 90.1835 66.9185 89.2948C66.9185 88.394 67.0768 87.5479 67.3933 86.7565C67.7098 85.953 68.1481 85.253 68.7081 84.6565C69.2803 84.06 69.9377 83.5913 70.6803 83.2504C71.4229 82.9095 72.2142 82.7391 73.0542 82.7391C73.9308 82.7391 74.7464 82.9034 75.5012 83.2321C76.2682 83.5608 76.9317 84.0235 77.4917 84.62C78.0639 85.2043 78.5143 85.8922 78.843 86.6835C79.1717 87.4748 79.3361 88.3209 79.3361 89.2218C79.3361 90.1105 79.1717 90.9444 78.843 91.7236C78.5265 92.4905 78.0882 93.1784 77.5282 93.7871C76.9682 94.3836 76.3169 94.8523 75.5743 95.1932C74.8438 95.5219 74.0586 95.6862 73.2186 95.6862ZM73.109 94.0245C73.7421 94.0245 74.3325 93.9027 74.8804 93.6593C75.4404 93.4158 75.9273 93.0749 76.3412 92.6366C76.7552 92.1862 77.0778 91.6749 77.3091 91.1027C77.5526 90.5183 77.6743 89.8853 77.6743 89.2035C77.6743 88.5461 77.5526 87.9313 77.3091 87.3592C77.0778 86.7748 76.7491 86.2635 76.323 85.8252C75.9091 85.3748 75.4282 85.0217 74.8804 84.7661C74.3325 84.5104 73.7482 84.3826 73.1273 84.3826C72.5064 84.3826 71.9221 84.5104 71.3742 84.7661C70.8264 85.0217 70.3394 85.3687 69.9133 85.807C69.4994 86.2452 69.1707 86.7565 68.9272 87.3409C68.6959 87.9253 68.5803 88.5522 68.5803 89.2218C68.5803 89.8792 68.6959 90.5001 68.9272 91.0844C69.1707 91.6688 69.4994 92.1801 69.9133 92.6184C70.3394 93.0566 70.8203 93.4036 71.356 93.6593C71.9038 93.9027 72.4881 94.0245 73.109 94.0245ZM86.3743 95.5584C86.1552 95.5584 85.9847 95.5158 85.863 95.4306C85.7534 95.3575 85.6804 95.248 85.6439 95.1019C85.6074 94.9436 85.5891 94.7732 85.5891 94.5906V83.7435C85.5891 83.5608 85.6074 83.4026 85.6439 83.2687C85.6926 83.1226 85.7717 83.013 85.8813 82.94C86.003 82.8547 86.1734 82.8121 86.3926 82.8121H91.4874C92.1692 82.8121 92.7657 82.9643 93.277 83.2687C93.8005 83.573 94.2084 83.9869 94.5005 84.5104C94.7927 85.0339 94.9327 85.6061 94.9205 86.227C94.9327 86.5435 94.8962 86.8539 94.811 87.1583C94.7258 87.4626 94.5979 87.7487 94.4275 88.0166C94.2692 88.2722 94.0683 88.4853 93.8249 88.6557C94.1536 88.8627 94.4336 89.1305 94.6649 89.4592C94.8962 89.7879 95.0727 90.1531 95.1945 90.5549C95.3162 90.9566 95.3771 91.3766 95.3771 91.8149C95.3649 92.3384 95.2675 92.8314 95.0849 93.294C94.9023 93.7445 94.6405 94.1401 94.2997 94.481C93.9588 94.8219 93.5631 95.0897 93.1127 95.2845C92.6622 95.4671 92.1814 95.5584 91.6701 95.5584H86.3743ZM87.2326 93.988H91.4874C91.9622 93.988 92.3701 93.8966 92.7109 93.714C93.0518 93.5314 93.3136 93.2636 93.4962 92.9105C93.6788 92.5575 93.7701 92.1253 93.7701 91.614C93.7701 91.1757 93.7092 90.8227 93.5875 90.5549C93.4657 90.287 93.3014 90.0862 93.0944 89.9522C92.8875 89.8062 92.6622 89.7027 92.4188 89.6418C92.1875 89.5809 91.9561 89.5505 91.7248 89.5505C91.5057 89.5383 91.3048 89.5322 91.1222 89.5322H90.0083C89.7648 89.5322 89.5883 89.4714 89.4787 89.3496C89.3691 89.2279 89.3144 89.0331 89.3144 88.7653C89.3144 88.5096 89.3691 88.327 89.4787 88.2174C89.6005 88.1079 89.7831 88.0531 90.0265 88.0531H91.1405C91.3353 88.0531 91.5544 88.047 91.7979 88.0348C92.0414 88.0226 92.2788 87.9739 92.5101 87.8887C92.7535 87.8035 92.9483 87.6452 93.0944 87.4139C93.2527 87.1705 93.3318 86.8296 93.3318 86.3913C93.3318 85.7096 93.1492 85.2104 92.784 84.8939C92.4188 84.5652 91.8161 84.4009 90.9761 84.4009H87.2326V93.988ZM113.289 94.3897C113.386 94.5723 113.435 94.7306 113.435 94.8645C113.447 94.9862 113.411 95.1019 113.326 95.2115C113.24 95.3088 113.106 95.4001 112.924 95.4854C112.632 95.6193 112.4 95.6497 112.23 95.5767C112.072 95.5036 111.926 95.3271 111.792 95.0471L107.226 85.3322L102.698 95.0288C102.564 95.3088 102.412 95.4854 102.241 95.5584C102.083 95.6315 101.852 95.601 101.547 95.4671C101.365 95.3941 101.231 95.3028 101.145 95.1932C101.072 95.0836 101.042 94.9497 101.054 94.7914C101.078 94.6332 101.139 94.4506 101.237 94.2436L106.478 83.3052C106.551 83.1591 106.654 83.0434 106.788 82.9582C106.934 82.8608 107.086 82.8121 107.245 82.8121C107.354 82.8121 107.458 82.8304 107.555 82.8669C107.652 82.9034 107.738 82.9582 107.811 83.0313C107.884 83.1043 107.945 83.2017 107.993 83.3234L113.289 94.3897ZM103.793 91.9244L104.414 90.5183H110.075L110.678 91.9244H103.793ZM120.468 95.5584C120.224 95.5584 120.041 95.5219 119.92 95.4488C119.798 95.388 119.713 95.2967 119.664 95.1749C119.628 95.0532 119.609 94.9071 119.609 94.7367V83.6521C119.609 83.4695 119.628 83.3174 119.664 83.1956C119.701 83.0739 119.774 82.9826 119.883 82.9217C120.005 82.8487 120.188 82.8121 120.431 82.8121C120.675 82.8121 120.851 82.8487 120.961 82.9217C121.082 82.9826 121.162 83.0739 121.198 83.1956C121.235 83.3174 121.253 83.4634 121.253 83.6339V94.0245H127.37C127.529 94.0245 127.662 94.0427 127.772 94.0793C127.882 94.1158 127.967 94.1888 128.028 94.2984C128.101 94.408 128.137 94.5723 128.137 94.7914C128.137 94.9984 128.107 95.1628 128.046 95.2845C127.985 95.3941 127.9 95.4671 127.79 95.5036C127.681 95.5402 127.547 95.5584 127.389 95.5584H120.468ZM21.3826 117.558C21.1391 117.558 20.9565 117.522 20.8348 117.449C20.7252 117.388 20.6522 117.297 20.6156 117.175C20.5791 117.041 20.5609 116.889 20.5609 116.718V105.634C20.5609 105.317 20.6217 105.104 20.7435 104.995C20.8774 104.873 21.1087 104.812 21.4374 104.812H28.7784C28.9488 104.812 29.0949 104.83 29.2166 104.867C29.3384 104.903 29.4297 104.983 29.4906 105.104C29.5514 105.226 29.5819 105.409 29.5819 105.652C29.5819 105.896 29.5454 106.078 29.4723 106.2C29.4114 106.31 29.3201 106.383 29.1984 106.419C29.0766 106.456 28.9306 106.474 28.7601 106.474H22.2044V110.254H26.7697C26.9401 110.254 27.0801 110.272 27.1897 110.309C27.3114 110.345 27.4027 110.418 27.4636 110.528C27.5244 110.637 27.5549 110.808 27.5549 111.039C27.5549 111.258 27.5244 111.423 27.4636 111.532C27.4027 111.642 27.3114 111.715 27.1897 111.751C27.0679 111.776 26.9157 111.788 26.7331 111.788H22.2044V115.915H28.7784C28.9488 115.915 29.0949 115.933 29.2166 115.97C29.3384 116.006 29.4297 116.085 29.4906 116.207C29.5514 116.317 29.5819 116.493 29.5819 116.737C29.5819 116.98 29.5454 117.163 29.4723 117.284C29.4114 117.394 29.3201 117.467 29.1984 117.504C29.0766 117.54 28.9306 117.558 28.7601 117.558H21.3826ZM46.4925 117.485C46.3221 117.607 46.176 117.686 46.0543 117.723C45.9325 117.771 45.8169 117.759 45.7073 117.686C45.5978 117.625 45.476 117.516 45.3421 117.358L36.7046 106.145C36.5098 105.902 36.4124 105.695 36.4124 105.524C36.4246 105.354 36.5524 105.171 36.7959 104.976C36.9541 104.83 37.0941 104.739 37.2159 104.703C37.3376 104.666 37.4533 104.678 37.5628 104.739C37.6846 104.8 37.8124 104.916 37.9463 105.086L46.5839 116.335C46.7786 116.566 46.8699 116.767 46.8578 116.938C46.8578 117.108 46.736 117.291 46.4925 117.485ZM36.7959 117.485C36.5524 117.291 36.4246 117.108 36.4124 116.938C36.4124 116.767 36.5098 116.566 36.7046 116.335L45.3421 105.086C45.476 104.916 45.5978 104.8 45.7073 104.739C45.8169 104.678 45.9325 104.666 46.0543 104.703C46.1882 104.739 46.3343 104.83 46.4925 104.976C46.736 105.171 46.8578 105.354 46.8578 105.524C46.8699 105.695 46.7786 105.902 46.5839 106.145L37.9463 117.358C37.8124 117.516 37.6846 117.625 37.5628 117.686C37.4533 117.759 37.3376 117.771 37.2159 117.723C37.0941 117.686 36.9541 117.607 36.7959 117.485ZM54.7892 117.558C54.5579 117.558 54.3814 117.522 54.2597 117.449C54.1501 117.388 54.0771 117.297 54.0405 117.175C54.004 117.041 53.9857 116.889 53.9857 116.718V105.634C53.9857 105.476 54.004 105.336 54.0405 105.214C54.0892 105.092 54.1744 104.995 54.2962 104.922C54.4179 104.849 54.5884 104.812 54.8075 104.812H58.8067C59.391 104.812 59.9267 104.903 60.4137 105.086C60.9128 105.256 61.345 105.524 61.7102 105.89C62.0876 106.243 62.3798 106.675 62.5867 107.186C62.7937 107.697 62.8972 108.288 62.8972 108.957C62.8972 109.615 62.7937 110.199 62.5867 110.71C62.3798 111.222 62.0876 111.654 61.7102 112.007C61.3328 112.348 60.8946 112.61 60.3954 112.792C59.9084 112.975 59.3728 113.066 58.7884 113.066H55.6475V116.737C55.6475 116.907 55.6232 117.053 55.5745 117.175C55.5379 117.297 55.4588 117.388 55.3371 117.449C55.2275 117.522 55.0449 117.558 54.7892 117.558ZM55.6475 111.404H58.8067C59.2937 111.404 59.7197 111.313 60.085 111.13C60.4502 110.936 60.7363 110.656 60.9432 110.29C61.1502 109.913 61.2537 109.457 61.2537 108.921C61.2537 108.41 61.1563 107.971 60.9615 107.606C60.7667 107.241 60.4806 106.961 60.1032 106.766C59.738 106.571 59.2997 106.474 58.7884 106.474H55.6475V111.404ZM75.2159 117.686C74.3515 117.686 73.5359 117.522 72.7689 117.193C72.0141 116.864 71.3445 116.408 70.7602 115.824C70.188 115.227 69.7376 114.545 69.4089 113.778C69.0802 113.011 68.9158 112.184 68.9158 111.295C68.9158 110.394 69.0741 109.548 69.3906 108.757C69.7071 107.953 70.1454 107.253 70.7054 106.657C71.2776 106.06 71.935 105.591 72.6776 105.25C73.4202 104.91 74.2115 104.739 75.0516 104.739C75.9281 104.739 76.7438 104.903 77.4985 105.232C78.2655 105.561 78.929 106.023 79.489 106.62C80.0612 107.204 80.5116 107.892 80.8403 108.683C81.169 109.475 81.3334 110.321 81.3334 111.222C81.3334 112.111 81.169 112.944 80.8403 113.724C80.5238 114.491 80.0855 115.178 79.5255 115.787C78.9655 116.384 78.3142 116.852 77.5716 117.193C76.8411 117.522 76.0559 117.686 75.2159 117.686ZM75.1063 116.024C75.7394 116.024 76.3298 115.903 76.8777 115.659C77.4377 115.416 77.9246 115.075 78.3386 114.637C78.7525 114.186 79.0751 113.675 79.3064 113.103C79.5499 112.518 79.6716 111.885 79.6716 111.204C79.6716 110.546 79.5499 109.931 79.3064 109.359C79.0751 108.775 78.7464 108.263 78.3203 107.825C77.9064 107.375 77.4255 107.022 76.8777 106.766C76.3298 106.51 75.7455 106.383 75.1246 106.383C74.5037 106.383 73.9194 106.51 73.3715 106.766C72.8237 107.022 72.3367 107.369 71.9106 107.807C71.4967 108.245 71.168 108.757 70.9245 109.341C70.6932 109.925 70.5776 110.552 70.5776 111.222C70.5776 111.879 70.6932 112.5 70.9245 113.084C71.168 113.669 71.4967 114.18 71.9106 114.618C72.3367 115.057 72.8176 115.404 73.3533 115.659C73.9011 115.903 74.4855 116.024 75.1063 116.024ZM88.7551 117.558C88.5238 117.558 88.3473 117.522 88.2255 117.449C88.1038 117.388 88.0247 117.297 87.9881 117.175C87.9638 117.041 87.9516 116.889 87.9516 116.718V105.616C87.9516 105.457 87.9699 105.323 88.0064 105.214C88.0551 105.092 88.1342 104.995 88.2438 104.922C88.3655 104.849 88.5421 104.812 88.7734 104.812H92.8091C93.4056 104.812 93.9474 104.903 94.4343 105.086C94.9335 105.256 95.3656 105.512 95.7309 105.853C96.0961 106.194 96.3761 106.626 96.5709 107.15C96.7778 107.661 96.8813 108.257 96.8813 108.939C96.8813 109.365 96.8144 109.81 96.6804 110.272C96.5465 110.723 96.3396 111.149 96.0596 111.55C95.7917 111.952 95.4448 112.287 95.0187 112.555C94.5926 112.823 94.0752 112.975 93.4665 113.011H89.5951V116.737C89.5951 116.907 89.5708 117.053 89.5221 117.175C89.4856 117.297 89.4064 117.388 89.2847 117.449C89.1751 117.522 88.9986 117.558 88.7551 117.558ZM96.5891 117.358C96.3335 117.528 96.1144 117.583 95.9317 117.522C95.7613 117.461 95.597 117.315 95.4387 117.084L92.5169 112.409L94.3248 112.135L96.8448 116.152C96.9665 116.347 97.0396 116.511 97.0639 116.645C97.1005 116.779 97.0761 116.901 96.9909 117.011C96.9178 117.12 96.7839 117.236 96.5891 117.358ZM89.5951 111.404H93.2108C93.4908 111.404 93.7526 111.356 93.9961 111.258C94.2395 111.149 94.4526 110.99 94.6352 110.784C94.8178 110.577 94.9639 110.321 95.0735 110.017C95.183 109.712 95.2378 109.347 95.2378 108.921C95.2378 108.397 95.1404 107.953 94.9456 107.588C94.763 107.223 94.4891 106.949 94.1239 106.766C93.7587 106.571 93.3082 106.474 92.7726 106.474H89.5951V111.404ZM112.695 104.812C112.853 104.812 112.981 104.83 113.079 104.867C113.188 104.903 113.273 104.976 113.334 105.086C113.395 105.183 113.426 105.348 113.426 105.579C113.426 105.798 113.389 105.963 113.316 106.072C113.255 106.182 113.17 106.255 113.06 106.291C112.951 106.316 112.817 106.328 112.659 106.328H108.879V116.755C108.879 116.913 108.854 117.053 108.806 117.175C108.769 117.297 108.69 117.388 108.568 117.449C108.459 117.522 108.288 117.558 108.057 117.558C107.813 117.558 107.631 117.522 107.509 117.449C107.399 117.388 107.326 117.297 107.29 117.175C107.266 117.041 107.253 116.895 107.253 116.737V106.328H103.419C103.26 106.328 103.126 106.316 103.017 106.291C102.907 106.255 102.822 106.182 102.761 106.072C102.7 105.963 102.67 105.798 102.67 105.579C102.67 105.348 102.694 105.183 102.743 105.086C102.804 104.976 102.889 104.903 102.999 104.867C103.12 104.83 103.254 104.812 103.4 104.812H112.695ZM123.442 117.741C122.98 117.741 122.542 117.686 122.128 117.577C121.726 117.467 121.355 117.321 121.014 117.138C120.685 116.944 120.393 116.731 120.137 116.499C119.882 116.268 119.681 116.037 119.535 115.805C119.401 115.611 119.315 115.452 119.279 115.331C119.242 115.197 119.248 115.069 119.297 114.947C119.358 114.825 119.474 114.691 119.644 114.545C119.839 114.399 120.009 114.332 120.155 114.344C120.302 114.344 120.435 114.399 120.557 114.509C120.691 114.618 120.825 114.764 120.959 114.947C121.263 115.361 121.635 115.665 122.073 115.86C122.511 116.043 122.943 116.134 123.369 116.134C123.917 116.134 124.404 116.061 124.83 115.915C125.256 115.769 125.591 115.55 125.835 115.258C126.09 114.953 126.218 114.564 126.218 114.089C126.218 113.699 126.121 113.371 125.926 113.103C125.731 112.835 125.469 112.61 125.141 112.427C124.812 112.232 124.447 112.068 124.045 111.934C123.643 111.788 123.235 111.648 122.822 111.514C122.493 111.404 122.17 111.283 121.854 111.149C121.537 111.003 121.239 110.844 120.959 110.674C120.679 110.491 120.429 110.278 120.21 110.035C120.003 109.791 119.839 109.505 119.717 109.177C119.608 108.848 119.553 108.464 119.553 108.026C119.553 107.357 119.711 106.766 120.028 106.255C120.356 105.743 120.813 105.348 121.397 105.068C121.982 104.776 122.657 104.63 123.424 104.63C123.875 104.63 124.289 104.672 124.666 104.757C125.043 104.843 125.378 104.958 125.67 105.104C125.962 105.238 126.212 105.384 126.419 105.543C126.626 105.689 126.784 105.829 126.894 105.963C127.113 106.194 127.235 106.389 127.259 106.547C127.283 106.705 127.192 106.9 126.985 107.131C126.79 107.35 126.602 107.466 126.419 107.478C126.236 107.49 126.036 107.405 125.816 107.223C125.585 106.955 125.342 106.748 125.086 106.602C124.842 106.456 124.581 106.358 124.301 106.31C124.033 106.249 123.735 106.218 123.406 106.218C123.089 106.218 122.791 106.261 122.511 106.346C122.243 106.419 122.006 106.535 121.799 106.693C121.604 106.851 121.452 107.046 121.342 107.277C121.233 107.497 121.178 107.752 121.178 108.044C121.178 108.373 121.263 108.653 121.434 108.884C121.616 109.116 121.854 109.317 122.146 109.487C122.438 109.645 122.767 109.791 123.132 109.925C123.497 110.047 123.881 110.169 124.282 110.29C124.721 110.424 125.153 110.589 125.579 110.784C126.005 110.966 126.389 111.197 126.729 111.477C127.07 111.745 127.344 112.086 127.551 112.5C127.758 112.914 127.862 113.425 127.862 114.034C127.862 114.643 127.74 115.178 127.496 115.641C127.265 116.104 126.942 116.493 126.529 116.81C126.115 117.114 125.64 117.345 125.104 117.504C124.581 117.662 124.027 117.741 123.442 117.741Z" fill="#213448"/>
<path d="M155.414 76.3758H131.713V94.2484H155.414V76.3758Z" stroke="#0071BC" stroke-width="1.94267" stroke-miterlimit="10" stroke-linecap="round" stroke-linejoin="round"/>
<path d="M169.79 75.9873H155.414V86.8662H169.79V75.9873Z" stroke="#0071BC" stroke-width="1.94267" stroke-miterlimit="10" stroke-linecap="round" stroke-linejoin="round"/>
<path d="M169.689 86.8231H159.976V93.8168H169.689V86.8231Z" stroke="#0071BC" stroke-width="1.94267" stroke-miterlimit="10" stroke-linecap="round" stroke-linejoin="round"/>
<path d="M159.976 90.3199H155.313V93.8168H159.976V90.3199Z" stroke="#0071BC" stroke-width="1.94267" stroke-miterlimit="10" stroke-linecap="round" stroke-linejoin="round"/>
<path d="M169.79 94.2484H131.713V123H169.79V94.2484Z" stroke="#0071BC" stroke-width="1.94267" stroke-miterlimit="10" stroke-linecap="round" stroke-linejoin="round"/>
<path d="M228.847 76.3758H169.79V123H228.847V76.3758Z" stroke="#0071BC" stroke-width="1.94267" stroke-miterlimit="10" stroke-linecap="round" stroke-linejoin="round"/>
<path d="M132.17 1.38853H131.8C185.441 1.38853 228.847 34.9201 228.847 76.3584C228.847 102.139 201.843 123 168.47 123H168.841C148.367 123 131.8 110.202 131.8 94.3855C131.8 84.4214 142.237 76.3584 155.135 76.3584H154.765C162.545 76.3584 168.841 81.2217 168.841 87.2319C168.841 91.1859 164.699 94.3855 159.58 94.3855C157.123 94.3855 155.135 92.7219 155.135 90.6657" stroke="#547792" stroke-width="1.94267" stroke-miterlimit="10" stroke-linecap="round" stroke-linejoin="round"/>
</svg>
