<svg width="304" height="304" viewBox="0 0 304 304" fill="none" xmlns="http://www.w3.org/2000/svg">
<g clip-path="url(#clip0_638_432)">
<path d="M152 304C235.947 304 304 235.947 304 152C304 68.0527 235.947 0 152 0C68.0527 0 0 68.0527 0 152C0 235.947 68.0527 304 152 304Z" fill="#213448"/>
<path d="M151.738 274.975C219.8 274.975 274.975 219.8 274.975 151.738C274.975 83.6753 219.8 28.5 151.738 28.5C83.6753 28.5 28.5 83.6753 28.5 151.738C28.5 219.8 83.6753 274.975 151.738 274.975Z" fill="#547792"/>
<path fill-rule="evenodd" clip-rule="evenodd" d="M207.869 238.438H112.538C107.513 238.438 103.425 234.349 103.425 229.324V94.2389C103.425 89.2133 107.513 85.1252 112.538 85.1252H207.869C212.894 85.1252 216.982 89.2137 216.982 94.2389V229.324C216.982 234.349 212.894 238.438 207.869 238.438ZM112.538 89.515C109.934 89.515 107.815 91.6342 107.815 94.2394V229.324C107.815 231.929 109.934 234.048 112.538 234.048H207.869C210.474 234.048 212.593 231.929 212.593 229.324V94.2384C212.593 91.6336 210.474 89.514 207.869 89.514L112.538 89.515Z" fill="#FEFEFE"/>
<path fill-rule="evenodd" clip-rule="evenodd" d="M191.44 176.439H128.969C127.756 176.439 126.774 175.456 126.774 174.244C126.774 173.032 127.756 172.049 128.969 172.049H191.44C192.652 172.049 193.634 173.032 193.634 174.244C193.634 175.456 192.652 176.439 191.44 176.439Z" fill="#FEFEFE"/>
<path fill-rule="evenodd" clip-rule="evenodd" d="M191.44 197.893H128.969C127.756 197.893 126.774 196.911 126.774 195.698C126.774 194.486 127.756 193.504 128.969 193.504H191.44C192.652 193.504 193.634 194.486 193.634 195.698C193.634 196.911 192.652 197.893 191.44 197.893Z" fill="#FEFEFE"/>
<path fill-rule="evenodd" clip-rule="evenodd" d="M191.44 219.348H128.969C127.756 219.348 126.774 218.366 126.774 217.154C126.774 215.942 127.756 214.959 128.969 214.959H191.44C192.652 214.959 193.634 215.942 193.634 217.154C193.634 218.366 192.652 219.348 191.44 219.348Z" fill="#FEFEFE"/>
<path fill-rule="evenodd" clip-rule="evenodd" d="M160.203 161.609C144.38 161.609 131.506 148.736 131.506 132.911C131.506 117.087 144.379 104.214 160.203 104.214C176.027 104.214 188.902 117.087 188.902 132.911C188.901 148.735 176.027 161.609 160.203 161.609ZM160.203 108.603C146.8 108.603 135.895 119.508 135.895 132.911C135.895 146.315 146.8 157.22 160.203 157.22C173.607 157.22 184.512 146.315 184.512 132.911C184.512 119.508 173.607 108.603 160.203 108.603Z" fill="#FEFEFE"/>
<path fill-rule="evenodd" clip-rule="evenodd" d="M160.203 161.61C156.088 161.61 152.367 158.395 149.726 152.557C147.336 147.272 146.02 140.296 146.02 132.911C146.02 125.527 147.335 118.55 149.726 113.266C152.367 107.429 156.087 104.213 160.203 104.213C164.319 104.213 168.04 107.428 170.681 113.266C173.071 118.55 174.387 125.527 174.387 132.911C174.387 140.296 173.071 147.272 170.681 152.557C168.04 158.395 164.319 161.61 160.203 161.61ZM160.203 108.603C155.571 108.603 150.409 118.586 150.409 132.911C150.409 147.237 155.571 157.22 160.203 157.22C164.836 157.22 169.998 147.237 169.998 132.911C169.998 118.586 164.836 108.603 160.203 108.603Z" fill="#FEFEFE"/>
<path fill-rule="evenodd" clip-rule="evenodd" d="M186.707 135.106H133.701C132.489 135.106 131.506 134.123 131.506 132.911C131.506 131.699 132.489 130.716 133.701 130.716H186.707C187.919 130.716 188.901 131.699 188.901 132.911C188.901 134.123 187.919 135.106 186.707 135.106Z" fill="#FEFEFE"/>
<path fill-rule="evenodd" clip-rule="evenodd" d="M105.62 218.875H96.1317C91.1061 218.875 87.0181 214.787 87.0181 209.761V74.6766C87.0177 69.651 91.1061 65.563 96.1317 65.563H191.461C196.487 65.563 200.575 69.6514 200.575 74.6766V87.3202C200.575 88.5322 199.593 89.5148 198.38 89.5148H112.538C109.934 89.5148 107.814 91.634 107.814 94.2392V216.68C107.815 217.892 106.832 218.875 105.62 218.875ZM96.1317 69.9525C94.877 69.9525 93.6921 70.446 92.7965 71.3421C91.9004 72.2381 91.4069 73.4222 91.4069 74.6765V209.762C91.4069 212.367 93.5261 214.486 96.1313 214.486H103.425V94.2391C103.425 89.2135 107.513 85.1255 112.538 85.1255H196.186V74.6766C196.186 72.0723 194.066 69.9526 191.461 69.9526L96.1317 69.9525Z" fill="#FEFEFE"/>
</g>
<defs>
<clipPath id="clip0_638_432">
<rect width="304" height="304" fill="white"/>
</clipPath>
</defs>
</svg>
