<svg width="127" height="127" viewBox="0 0 127 127" fill="none" xmlns="http://www.w3.org/2000/svg">
<g clip-path="url(#clip0_648_8)">
<path d="M111.125 63.5C111.125 57.2458 109.893 51.0528 107.5 45.2747C105.106 39.4966 101.598 34.2464 97.176 29.824C92.7536 25.4016 87.5034 21.8936 81.7253 19.5002C75.9472 17.1069 69.7542 15.875 63.5 15.875C57.2458 15.875 51.0528 17.1069 45.2747 19.5002C39.4966 21.8936 34.2464 25.4016 29.824 29.824C25.4016 34.2464 21.8936 39.4966 19.5002 45.2747C17.1069 51.0528 15.875 57.2458 15.875 63.5C15.875 69.7542 17.1069 75.9472 19.5002 81.7253C21.8936 87.5034 25.4016 92.7536 29.824 97.176C34.2464 101.598 39.4966 105.106 45.2747 107.5C51.0528 109.893 57.2458 111.125 63.5 111.125C69.7542 111.125 75.9472 109.893 81.7253 107.5C87.5034 105.106 92.7536 101.598 97.176 97.176C101.598 92.7536 105.106 87.5034 107.5 81.7253C109.893 75.9472 111.125 69.7542 111.125 63.5ZM0 63.5C0 46.6588 6.69016 30.5073 18.5987 18.5987C30.5073 6.69016 46.6588 0 63.5 0C80.3412 0 96.4927 6.69016 108.401 18.5987C120.31 30.5073 127 46.6588 127 63.5C127 80.3412 120.31 96.4927 108.401 108.401C96.4927 120.31 80.3412 127 63.5 127C46.6588 127 30.5073 120.31 18.5987 108.401C6.69016 96.4927 0 80.3412 0 63.5ZM63.5 83.3438C68.7629 83.3438 73.8102 81.2531 77.5317 77.5317C81.2531 73.8102 83.3438 68.7629 83.3438 63.5C83.3438 58.2371 81.2531 53.1898 77.5317 49.4683C73.8102 45.7469 68.7629 43.6563 63.5 43.6562C58.2371 43.6563 53.1898 45.7469 49.4683 49.4683C45.7469 53.1898 43.6563 58.2371 43.6562 63.5C43.6563 68.7629 45.7469 73.8102 49.4683 77.5317C53.1898 81.2531 58.2371 83.3438 63.5 83.3438ZM63.5 27.7812C72.9732 27.7813 82.0584 31.5445 88.757 38.243C95.4555 44.9416 99.2188 54.0268 99.2188 63.5C99.2188 72.9732 95.4555 82.0584 88.757 88.757C82.0584 95.4555 72.9732 99.2188 63.5 99.2188C54.0268 99.2188 44.9416 95.4555 38.243 88.757C31.5445 82.0584 27.7813 72.9732 27.7812 63.5C27.7812 54.0268 31.5445 44.9416 38.243 38.243C44.9416 31.5445 54.0268 27.7813 63.5 27.7812ZM55.5625 63.5C55.5625 61.3948 56.3988 59.3759 57.8873 57.8873C59.3759 56.3988 61.3948 55.5625 63.5 55.5625C65.6052 55.5625 67.6241 56.3988 69.1127 57.8873C70.6012 59.3759 71.4375 61.3948 71.4375 63.5C71.4375 65.6052 70.6012 67.6241 69.1127 69.1127C67.6241 70.6012 65.6052 71.4375 63.5 71.4375C61.3948 71.4375 59.3759 70.6012 57.8873 69.1127C56.3988 67.6241 55.5625 65.6052 55.5625 63.5Z" fill="white"/>
</g>
<defs>
<clipPath id="clip0_648_8">
<rect width="127" height="127" fill="white"/>
</clipPath>
</defs>
</svg>
