<svg width="304" height="304" viewBox="0 0 304 304" fill="none" xmlns="http://www.w3.org/2000/svg">
<g clip-path="url(#clip0_632_260)">
<path d="M220.645 83.355H181.419V112.774H220.645V83.355Z" fill="#D3A06C"/>
<path d="M289.29 152H152V191.226H289.29V152Z" fill="#DFB28B"/>
<path d="M269.677 112.774H171.613V152H269.677V112.774Z" fill="#D3A06C"/>
<path d="M210.839 132.387H191.226V152H210.839V132.387Z" fill="#69D6F4"/>
<path d="M250.065 132.387H230.452V152H250.065V132.387Z" fill="#69D6F4"/>
<path d="M269.677 171.613H250.064V191.226H269.677V171.613Z" fill="#69D6F4"/>
<path d="M230.452 171.613H210.839V191.226H230.452V171.613Z" fill="#69D6F4"/>
<path d="M191.226 171.613H171.613V191.226H191.226V171.613Z" fill="#69D6F4"/>
<path d="M122.581 152V210.839H73.5483L63.7419 191.226H34.3225V152H122.581Z" fill="#CCD1D9"/>
<path d="M289.29 191.226H299.097C299.097 219.419 287.182 244.867 268.108 262.764C264.235 261.048 259.528 259.871 253.35 259.871C228.049 259.871 228.049 279.484 202.699 279.484C177.35 279.484 177.35 259.871 152.049 259.871C126.699 259.871 126.699 279.484 101.399 279.484C76.6864 279.484 76.049 260.852 52.5626 259.92C43.8839 251.045 36.8722 240.552 32.018 228.981C27.1639 217.311 24.5161 204.563 24.5161 191.226H34.3226H63.7419L73.5484 210.839H122.581L142.194 191.226H152H171.613H191.226H210.839H230.452H250.064H269.677H289.29Z" fill="#E6E9ED"/>
<path d="M259.871 230.452C265.287 230.452 269.677 226.061 269.677 220.645C269.677 215.229 265.287 210.839 259.871 210.839C254.455 210.839 250.064 215.229 250.064 220.645C250.064 226.061 254.455 230.452 259.871 230.452Z" fill="#69D6F4"/>
<path d="M220.645 230.452C226.061 230.452 230.452 226.061 230.452 220.645C230.452 215.229 226.061 210.839 220.645 210.839C215.229 210.839 210.839 215.229 210.839 220.645C210.839 226.061 215.229 230.452 220.645 230.452Z" fill="#69D6F4"/>
<path d="M181.419 230.452C186.835 230.452 191.226 226.061 191.226 220.645C191.226 215.229 186.835 210.839 181.419 210.839C176.003 210.839 171.613 215.229 171.613 220.645C171.613 226.061 176.003 230.452 181.419 230.452Z" fill="#69D6F4"/>
<path d="M268.108 262.764C280.219 268.256 284.877 279.484 304 279.484V299.097C284.632 299.097 273.845 290.712 266.686 285.172C261.293 281.053 259.332 279.484 253.35 279.484C247.417 279.484 245.406 281.053 240.062 285.172C232.903 290.712 222.067 299.097 202.699 299.097C183.332 299.097 172.545 290.712 165.386 285.172C159.992 281.053 157.982 279.484 152.049 279.484C146.067 279.484 144.057 281.053 138.712 285.172C131.554 290.712 120.766 299.097 101.399 299.097C82.031 299.097 71.1948 290.712 64.0361 285.172C58.6916 281.053 56.6813 279.484 50.6994 279.484C44.7174 279.484 42.7071 281.053 37.3626 285.172C30.2039 290.712 19.3677 299.097 0 299.097V279.484C25.3497 279.484 25.3497 259.871 50.6994 259.871C51.3368 259.871 51.9742 259.871 52.5626 259.92C76.049 260.852 76.6865 279.484 101.399 279.484C126.699 279.484 126.699 259.871 152.049 259.871C177.35 259.871 177.35 279.484 202.699 279.484C228.049 279.484 228.049 259.871 253.35 259.871C259.528 259.871 264.235 261.048 268.108 262.764Z" fill="#69D6F4"/>
<path d="M74.6272 135.452L78.4517 140.227L82.2762 135.452C99.5209 113.941 113.524 90.1507 124.057 64.3499C126.332 58.7799 127.484 52.9058 127.484 46.8945C127.484 21.0397 106.062 0 79.7363 0H77.172C50.8416 0 29.4194 21.0397 29.4194 46.8945C29.4194 52.9058 30.5717 58.7799 33.0037 64.7373C43.3789 90.1507 57.3825 113.941 74.6272 135.452ZM77.167 9.80645H79.7314C100.658 9.80645 117.677 26.448 117.677 46.8945C117.677 51.6261 116.765 56.2498 114.819 61.0305C105.581 83.6588 93.3624 104.963 78.4517 124.439C63.541 104.958 51.3074 83.6343 41.9276 60.6431C40.1379 56.2547 39.2259 51.6261 39.2259 46.8945C39.2259 26.448 56.245 9.80645 77.167 9.80645Z" fill="black"/>
<path d="M78.4516 78.4515C94.6764 78.4515 107.871 65.2569 107.871 49.0321C107.871 32.8074 94.6764 19.6128 78.4516 19.6128C62.2268 19.6128 49.0322 32.8074 49.0322 49.0321C49.0322 65.2569 62.2268 78.4515 78.4516 78.4515ZM78.4516 29.4192C89.2681 29.4192 98.0645 38.2156 98.0645 49.0321C98.0645 59.8487 89.2681 68.645 78.4516 68.645C67.6351 68.645 58.8387 59.8487 58.8387 49.0321C58.8387 38.2156 67.6351 29.4192 78.4516 29.4192Z" fill="black"/>
<path d="M253.359 274.581C245.725 274.581 242.641 276.968 237.037 281.308C230.015 286.745 220.4 294.193 202.704 294.193C185.009 294.193 175.388 286.745 168.367 281.308C162.763 276.968 159.678 274.581 152.034 274.581C144.395 274.581 141.311 276.968 135.711 281.308C128.695 286.745 119.075 294.193 101.379 294.193C83.6785 294.193 74.0583 286.745 67.032 281.308C61.4276 276.968 58.3386 274.581 50.6896 274.581C43.0405 274.581 39.9515 276.968 34.3471 281.308C27.3208 286.745 17.7006 294.193 0 294.193V304C21.0495 304 33.1311 294.654 40.3486 289.065C45.4676 285.103 46.3894 284.387 50.6896 284.387C54.9897 284.387 55.9115 285.103 61.0304 289.065C68.248 294.649 80.3246 304 101.379 304C122.424 304 134.5 294.649 141.723 289.06C146.832 285.103 147.754 284.387 152.034 284.387C156.325 284.387 157.246 285.103 162.361 289.065C169.578 294.649 181.655 304 202.704 304C223.749 304 235.826 294.649 243.043 289.06C248.157 285.103 249.079 284.387 253.359 284.387C257.635 284.387 258.557 285.103 263.671 289.06C270.884 294.649 282.96 304 304 304V294.193C286.314 294.193 276.699 286.745 269.673 281.303C264.073 276.968 260.989 274.581 253.359 274.581Z" fill="black"/>
<path d="M304 186.323H294.194V147.097H274.581V107.871H254.968V78.4516H264.774V68.6452H254.968V58.8387H264.774V49.0323H254.968V39.2258H245.161V49.0323H235.355V58.8387H245.161V68.6452H235.355V78.4516H245.161V107.871H225.548V78.4516H176.516V107.871H166.71V147.097H147.097V186.323H140.164L127.484 199.002V147.097H29.4194V186.323H19.6129V191.226C19.6129 214.957 27.615 237.512 42.3296 255.752C33.2145 257.468 27.4826 261.822 22.344 265.799C16.2542 270.511 10.9979 274.581 0 274.581V284.387C14.3468 284.387 21.785 278.631 28.3456 273.556C34.4354 268.844 39.6916 264.774 50.6896 264.774C61.6875 264.774 66.9437 268.844 73.0385 273.556C79.5941 278.631 87.0323 284.387 101.379 284.387C115.721 284.387 123.149 278.631 129.71 273.556C135.795 268.844 141.051 264.774 152.034 264.774C163.027 264.774 168.279 268.844 174.369 273.556C180.929 278.631 188.362 284.387 202.704 284.387C217.046 284.387 224.475 278.631 231.035 273.556C237.12 268.844 242.371 264.774 253.359 264.774C264.343 264.774 269.599 268.844 275.679 273.556C282.235 278.631 289.663 284.387 304 284.387V274.581C293.017 274.581 287.761 270.511 281.681 265.799C279.891 264.416 278.023 262.989 275.983 261.636C293.796 242.636 304 217.385 304 191.226V186.323ZM186.323 88.2581H215.742V107.871H186.323V88.2581ZM176.516 117.677H264.774V147.097H254.968V127.484H225.548V147.097H215.742V127.484H186.323V147.097H176.516V117.677ZM245.161 147.097H235.355V137.29H245.161V147.097ZM205.935 147.097H196.129V137.29H205.935V147.097ZM156.903 156.903H166.71H274.581H284.387V186.323H274.581V166.71H245.161V186.323H235.355V166.71H205.935V186.323H196.129V166.71H166.71V186.323H156.903V156.903ZM264.774 186.323H254.968V176.516H264.774V186.323ZM225.548 186.323H215.742V176.516H225.548V186.323ZM186.323 186.323H176.516V176.516H186.323V186.323ZM76.5786 205.936L71.6754 196.129H117.677V205.936H76.5786ZM117.677 156.903V166.71H39.2258V156.903H117.677ZM39.2258 176.516H117.677V186.323H66.7721H63.7419H39.2258V176.516ZM266.834 257.042C263.092 255.772 258.709 254.968 253.359 254.968C239.022 254.968 231.589 260.724 225.034 265.799C218.949 270.511 213.692 274.581 202.704 274.581C191.711 274.581 186.46 270.511 180.37 265.799C173.814 260.724 166.381 254.968 152.034 254.968C137.692 254.968 130.264 260.724 123.703 265.799C117.623 270.511 112.367 274.581 101.379 274.581C90.3812 274.581 85.1249 270.511 79.0351 265.799C73.161 261.254 66.5417 256.198 54.9259 255.183C39.623 239.003 30.6893 218.272 29.5468 196.129H60.7117L70.5182 215.742H124.611L144.223 196.129H294.071C292.889 219.272 283.294 240.606 266.834 257.042Z" fill="black"/>
<path d="M181.419 235.355C189.529 235.355 196.129 228.755 196.129 220.645C196.129 212.535 189.529 205.936 181.419 205.936C173.309 205.936 166.71 212.535 166.71 220.645C166.71 228.755 173.309 235.355 181.419 235.355ZM181.419 215.742C184.121 215.742 186.323 217.939 186.323 220.645C186.323 223.352 184.121 225.548 181.419 225.548C178.718 225.548 176.516 223.352 176.516 220.645C176.516 217.939 178.718 215.742 181.419 215.742Z" fill="black"/>
<path d="M220.645 235.355C228.755 235.355 235.355 228.755 235.355 220.645C235.355 212.535 228.755 205.936 220.645 205.936C212.535 205.936 205.936 212.535 205.936 220.645C205.936 228.755 212.535 235.355 220.645 235.355ZM220.645 215.742C223.347 215.742 225.548 217.939 225.548 220.645C225.548 223.352 223.347 225.548 220.645 225.548C217.944 225.548 215.742 223.352 215.742 220.645C215.742 217.939 217.944 215.742 220.645 215.742Z" fill="black"/>
<path d="M259.871 235.355C267.981 235.355 274.581 228.755 274.581 220.645C274.581 212.535 267.981 205.936 259.871 205.936C251.761 205.936 245.161 212.535 245.161 220.645C245.161 228.755 251.761 235.355 259.871 235.355ZM259.871 215.742C262.573 215.742 264.774 217.939 264.774 220.645C264.774 223.352 262.573 225.548 259.871 225.548C257.169 225.548 254.968 223.352 254.968 220.645C254.968 217.939 257.169 215.742 259.871 215.742Z" fill="black"/>
</g>
<defs>
<clipPath id="clip0_632_260">
<rect width="304" height="304" fill="white"/>
</clipPath>
</defs>
</svg>
