<svg width="127" height="127" viewBox="0 0 127 127" fill="none" xmlns="http://www.w3.org/2000/svg">
<g clip-path="url(#clip0_650_12)">
<path d="M47.625 25.9953C47.625 23.7133 46.1863 21.7041 44.3508 20.3398C41.4734 18.1818 39.6875 15.2053 39.6875 11.9062C39.6875 5.33301 46.8064 0 55.5625 0C64.3186 0 71.4375 5.33301 71.4375 11.9062C71.4375 15.2053 69.6516 18.1818 66.7742 20.3398C64.9387 21.7041 63.5 23.7133 63.5 25.9953C63.5 29.1703 66.0797 31.75 69.2547 31.75H83.3438C89.917 31.75 95.25 37.083 95.25 43.6562V57.7453C95.25 60.9203 97.8297 63.5 101.005 63.5C103.287 63.5 105.296 62.0613 106.66 60.2258C108.818 57.3484 111.795 55.5625 115.094 55.5625C121.667 55.5625 127 62.6814 127 71.4375C127 80.1936 121.667 87.3125 115.094 87.3125C111.795 87.3125 108.818 85.5266 106.66 82.6492C105.296 80.8137 103.287 79.375 101.005 79.375C97.8297 79.375 95.25 81.9547 95.25 85.1297V115.094C95.25 121.667 89.917 127 83.3438 127H69.2547C66.0797 127 63.5 124.42 63.5 121.245C63.5 118.963 64.9387 116.954 66.7742 115.59C69.6516 113.432 71.4375 110.455 71.4375 107.156C71.4375 100.583 64.3186 95.25 55.5625 95.25C46.8064 95.25 39.6875 100.583 39.6875 107.156C39.6875 110.455 41.4734 113.432 44.3508 115.59C46.1863 116.954 47.625 118.963 47.625 121.245C47.625 124.42 45.0453 127 41.8703 127H11.9062C5.33301 127 0 121.667 0 115.094V85.1297C0 81.9547 2.57969 79.375 5.75469 79.375C8.03672 79.375 10.0459 80.8137 11.4102 82.6492C13.5682 85.5266 16.5447 87.3125 19.8438 87.3125C26.417 87.3125 31.75 80.1936 31.75 71.4375C31.75 62.6814 26.417 55.5625 19.8438 55.5625C16.5447 55.5625 13.5682 57.3484 11.4102 60.2258C10.0459 62.0613 8.03672 63.5 5.75469 63.5C2.57969 63.5 0 60.9203 0 57.7453V43.6562C0 37.083 5.33301 31.75 11.9062 31.75H41.8703C45.0453 31.75 47.625 29.1703 47.625 25.9953Z" fill="white"/>
</g>
<defs>
<clipPath id="clip0_650_12">
<rect width="127" height="127" fill="white"/>
</clipPath>
</defs>
</svg>
